<mxfile host="app.diagrams.net" modified="2024-04-04T10:33:55.909Z" agent="Mozilla/5.0 (Macintosh; Intel Mac OS X 10_15_7) AppleWebKit/537.36 (KHTML, like Gecko) Chrome/115.0.0.0 Safari/537.36" etag="xxfacB0pv820AldSTqSx" version="24.2.2" type="device">
  <diagram name="Page-1" id="jQG7VhUfF4tZGJDEw1No">
    <mxGraphModel dx="826" dy="1079" grid="1" gridSize="10" guides="1" tooltips="1" connect="1" arrows="1" fold="1" page="1" pageScale="1" pageWidth="827" pageHeight="1169" math="0" shadow="0">
      <root>
        <mxCell id="0" />
        <mxCell id="1" parent="0" />
        <mxCell id="cjSpuHQJAUaykFOjAmkV-18" style="edgeStyle=orthogonalEdgeStyle;rounded=0;orthogonalLoop=1;jettySize=auto;html=1;exitX=0.25;exitY=1;exitDx=0;exitDy=0;entryX=0.25;entryY=0;entryDx=0;entryDy=0;" edge="1" parent="1" source="cjSpuHQJAUaykFOjAmkV-1" target="cjSpuHQJAUaykFOjAmkV-4">
          <mxGeometry relative="1" as="geometry" />
        </mxCell>
        <mxCell id="cjSpuHQJAUaykFOjAmkV-1" value="" style="rounded=1;whiteSpace=wrap;html=1;" vertex="1" parent="1">
          <mxGeometry x="120" y="120" width="120" height="60" as="geometry" />
        </mxCell>
        <mxCell id="cjSpuHQJAUaykFOjAmkV-3" value="Minishell/parent" style="text;html=1;align=center;verticalAlign=middle;whiteSpace=wrap;rounded=0;" vertex="1" parent="1">
          <mxGeometry x="150" y="135" width="60" height="30" as="geometry" />
        </mxCell>
        <mxCell id="cjSpuHQJAUaykFOjAmkV-6" value="" style="edgeStyle=orthogonalEdgeStyle;rounded=0;orthogonalLoop=1;jettySize=auto;html=1;" edge="1" parent="1" source="cjSpuHQJAUaykFOjAmkV-4" target="cjSpuHQJAUaykFOjAmkV-5">
          <mxGeometry relative="1" as="geometry" />
        </mxCell>
        <mxCell id="cjSpuHQJAUaykFOjAmkV-7" value="YES" style="edgeLabel;html=1;align=center;verticalAlign=middle;resizable=0;points=[];" vertex="1" connectable="0" parent="cjSpuHQJAUaykFOjAmkV-6">
          <mxGeometry x="-0.2" y="3" relative="1" as="geometry">
            <mxPoint as="offset" />
          </mxGeometry>
        </mxCell>
        <mxCell id="cjSpuHQJAUaykFOjAmkV-23" style="edgeStyle=orthogonalEdgeStyle;rounded=0;orthogonalLoop=1;jettySize=auto;html=1;exitX=0.5;exitY=1;exitDx=0;exitDy=0;entryX=0.5;entryY=0;entryDx=0;entryDy=0;" edge="1" parent="1" source="cjSpuHQJAUaykFOjAmkV-4" target="cjSpuHQJAUaykFOjAmkV-19">
          <mxGeometry relative="1" as="geometry" />
        </mxCell>
        <mxCell id="cjSpuHQJAUaykFOjAmkV-24" value="NO" style="edgeLabel;html=1;align=center;verticalAlign=middle;resizable=0;points=[];" vertex="1" connectable="0" parent="cjSpuHQJAUaykFOjAmkV-23">
          <mxGeometry x="-0.1" y="1" relative="1" as="geometry">
            <mxPoint as="offset" />
          </mxGeometry>
        </mxCell>
        <mxCell id="cjSpuHQJAUaykFOjAmkV-4" value="Multiple commands eh?" style="rounded=1;whiteSpace=wrap;html=1;" vertex="1" parent="1">
          <mxGeometry x="120" y="240" width="120" height="60" as="geometry" />
        </mxCell>
        <mxCell id="cjSpuHQJAUaykFOjAmkV-9" value="" style="edgeStyle=orthogonalEdgeStyle;rounded=0;orthogonalLoop=1;jettySize=auto;html=1;" edge="1" parent="1" source="cjSpuHQJAUaykFOjAmkV-5" target="cjSpuHQJAUaykFOjAmkV-8">
          <mxGeometry relative="1" as="geometry" />
        </mxCell>
        <mxCell id="cjSpuHQJAUaykFOjAmkV-10" value="YES" style="edgeLabel;html=1;align=center;verticalAlign=middle;resizable=0;points=[];" vertex="1" connectable="0" parent="cjSpuHQJAUaykFOjAmkV-9">
          <mxGeometry x="-0.2" relative="1" as="geometry">
            <mxPoint as="offset" />
          </mxGeometry>
        </mxCell>
        <mxCell id="cjSpuHQJAUaykFOjAmkV-15" style="edgeStyle=orthogonalEdgeStyle;rounded=0;orthogonalLoop=1;jettySize=auto;html=1;exitX=0.75;exitY=1;exitDx=0;exitDy=0;entryX=0.5;entryY=0;entryDx=0;entryDy=0;" edge="1" parent="1" source="cjSpuHQJAUaykFOjAmkV-5" target="cjSpuHQJAUaykFOjAmkV-12">
          <mxGeometry relative="1" as="geometry" />
        </mxCell>
        <mxCell id="cjSpuHQJAUaykFOjAmkV-16" value="NO" style="edgeLabel;html=1;align=center;verticalAlign=middle;resizable=0;points=[];" vertex="1" connectable="0" parent="cjSpuHQJAUaykFOjAmkV-15">
          <mxGeometry x="-0.0217" y="3" relative="1" as="geometry">
            <mxPoint as="offset" />
          </mxGeometry>
        </mxCell>
        <mxCell id="cjSpuHQJAUaykFOjAmkV-5" value="is last cmd?" style="whiteSpace=wrap;html=1;rounded=1;" vertex="1" parent="1">
          <mxGeometry x="320" y="240" width="120" height="60" as="geometry" />
        </mxCell>
        <mxCell id="cjSpuHQJAUaykFOjAmkV-20" style="edgeStyle=orthogonalEdgeStyle;rounded=0;orthogonalLoop=1;jettySize=auto;html=1;exitX=0.5;exitY=0;exitDx=0;exitDy=0;entryX=1;entryY=0.5;entryDx=0;entryDy=0;" edge="1" parent="1" source="cjSpuHQJAUaykFOjAmkV-8" target="cjSpuHQJAUaykFOjAmkV-1">
          <mxGeometry relative="1" as="geometry" />
        </mxCell>
        <mxCell id="cjSpuHQJAUaykFOjAmkV-8" value="Output to parent and run execve.&lt;div&gt;&lt;br&gt;&lt;/div&gt;" style="whiteSpace=wrap;html=1;rounded=1;" vertex="1" parent="1">
          <mxGeometry x="560" y="240" width="120" height="60" as="geometry" />
        </mxCell>
        <mxCell id="cjSpuHQJAUaykFOjAmkV-17" style="edgeStyle=orthogonalEdgeStyle;rounded=0;orthogonalLoop=1;jettySize=auto;html=1;exitX=0.5;exitY=1;exitDx=0;exitDy=0;entryX=0;entryY=0.75;entryDx=0;entryDy=0;" edge="1" parent="1" source="cjSpuHQJAUaykFOjAmkV-12" target="cjSpuHQJAUaykFOjAmkV-5">
          <mxGeometry relative="1" as="geometry" />
        </mxCell>
        <mxCell id="cjSpuHQJAUaykFOjAmkV-12" value="create child process, output to pipe and run execve." style="whiteSpace=wrap;html=1;rounded=1;" vertex="1" parent="1">
          <mxGeometry x="414" y="420" width="120" height="60" as="geometry" />
        </mxCell>
        <mxCell id="cjSpuHQJAUaykFOjAmkV-22" style="edgeStyle=orthogonalEdgeStyle;rounded=0;orthogonalLoop=1;jettySize=auto;html=1;exitX=0;exitY=0.5;exitDx=0;exitDy=0;entryX=0;entryY=0.5;entryDx=0;entryDy=0;" edge="1" parent="1" source="cjSpuHQJAUaykFOjAmkV-19" target="cjSpuHQJAUaykFOjAmkV-1">
          <mxGeometry relative="1" as="geometry">
            <Array as="points">
              <mxPoint x="70" y="390" />
              <mxPoint x="70" y="150" />
            </Array>
          </mxGeometry>
        </mxCell>
        <mxCell id="cjSpuHQJAUaykFOjAmkV-19" value="output to parent and run execve." style="whiteSpace=wrap;html=1;rounded=1;" vertex="1" parent="1">
          <mxGeometry x="120" y="360" width="120" height="60" as="geometry" />
        </mxCell>
      </root>
    </mxGraphModel>
  </diagram>
</mxfile>
